<svg xmlns="http://www.w3.org/2000/svg" width="16" height="16" viewBox="0 0 16 16" fill="none">
  <path d="M7.81538 7.83789C8.53409 7.45934 9.36491 7.18 10.3364 6.99072C10.4002 7.61137 10.312 8.26926 10.1627 8.8082C9.80655 10.0845 8.99131 11.0901 7.98261 11.4994C7.29241 11.7811 6.5034 11.7655 6.06404 11.4641C5.78507 11.2748 5.65319 10.9757 5.65965 10.5508C5.67941 9.07424 7.31446 8.09937 7.81576 7.83751L7.81538 7.83789Z" fill="#F5846A"/>
  <path d="M16.0001 7.99886C16.0001 10.2082 15.1054 12.2085 13.6593 13.6565C12.2131 15.1046 10.2155 16 8.00884 16C3.59552 16 0.0175781 12.4175 0.0175781 7.99886C0.0175781 5.78954 0.912252 3.78925 2.3584 2.34348C3.80455 0.895434 5.80218 0 8.00884 0C10.2155 0 12.2131 0.895814 13.6593 2.34348C14.5406 3.226 15.2175 4.31298 15.6109 5.52995C14.2571 5.36729 12.8965 5.34942 11.5602 5.48359C11.4701 5.49233 11.3823 5.50107 11.2941 5.51209C11.1204 5.13355 10.8833 4.78579 10.5644 4.48895C10.0479 4.00475 9.31588 3.7254 8.38624 3.65927C6.54444 3.52739 4.6521 4.21835 3.32909 5.50791L4.24771 6.45427C5.30695 5.42201 6.81923 4.87206 8.2916 4.97544C8.91149 5.01953 9.37289 5.18029 9.66516 5.4528C9.75524 5.5387 9.83429 5.63105 9.90688 5.73215C8.88261 5.94346 7.98831 6.2536 7.2012 6.66749C5.42971 7.60055 4.35945 9.04632 4.33968 10.5339C4.32866 11.3985 4.67604 12.1161 5.31759 12.5562C5.77025 12.8645 6.35479 13.0207 6.97696 13.0207C7.47142 13.0207 7.98793 12.9237 8.47822 12.7235C9.88256 12.1515 10.9597 10.8551 11.4321 9.16528C11.632 8.45 11.7331 7.61157 11.6407 6.80203C11.6559 6.79975 11.6738 6.79975 11.689 6.79747C13.0846 6.65875 14.511 6.6941 15.9241 6.90313C15.9724 7.26191 15.999 7.62716 15.999 7.99886H16.0001Z" fill="#F5846A"/>
  <path d="M12.8107 12.5532C13.3291 12.5532 13.7491 12.1306 13.7491 11.6091C13.7491 11.0877 13.3287 10.665 12.8107 10.665C12.2927 10.665 11.8723 11.0877 11.8723 11.6091C11.8723 12.1306 12.2923 12.5532 12.8107 12.5532Z" fill="white"/>
</svg>