<svg xmlns="http://www.w3.org/2000/svg" width="17" height="16" viewBox="0 0 17 16" fill="none">
  <path d="M8.01758 0C5.89654 0.00226889 3.86303 0.845852 2.36323 2.34565C0.86343 3.84545 0.019847 5.87896 0.0175781 8C0.0179372 9.38352 0.380426 10.7429 1.06901 11.9429L0.594721 14.7657C0.580477 14.8553 0.58754 14.947 0.615337 15.0334C0.643135 15.1198 0.690885 15.1984 0.754721 15.2629C0.819736 15.3259 0.898401 15.3731 0.984615 15.4009C1.07083 15.4286 1.16228 15.4362 1.25186 15.4229L4.07472 14.9486C5.27472 15.6372 6.63405 15.9996 8.01758 16C10.1393 16 12.1741 15.1571 13.6744 13.6569C15.1747 12.1566 16.0176 10.1217 16.0176 8C16.0176 5.87827 15.1747 3.84344 13.6744 2.34315C12.1741 0.842855 10.1393 3.16163e-08 8.01758 0ZM7.61186 11.8343C7.55865 11.7811 7.51658 11.7178 7.48812 11.6481C7.45967 11.5785 7.4454 11.5038 7.44615 11.4286C7.44837 11.2773 7.50754 11.1324 7.61186 11.0229C7.71947 10.9153 7.86541 10.8548 8.01758 10.8548C8.16975 10.8548 8.31569 10.9153 8.42329 11.0229C8.53089 11.1305 8.59134 11.2764 8.59134 11.4286C8.59134 11.5807 8.53089 11.7267 8.42329 11.8343C8.31434 11.9393 8.16891 11.998 8.01758 11.998C7.86625 11.998 7.72081 11.9393 7.61186 11.8343ZM9.12044 8.50286C8.96767 8.57706 8.83771 8.69104 8.7442 8.83282C8.65069 8.97459 8.59708 9.13893 8.58901 9.30857V9.49714C8.58901 9.6487 8.5288 9.79404 8.42164 9.9012C8.31448 10.0084 8.16913 10.0686 8.01758 10.0686C7.86603 10.0686 7.72068 10.0084 7.61352 9.9012C7.50635 9.79404 7.44615 9.6487 7.44615 9.49714V9.30857C7.45175 8.93436 7.55891 8.56871 7.75618 8.25067C7.95344 7.93263 8.2334 7.67415 8.56615 7.50286C8.77886 7.38726 8.94938 7.2071 9.0531 6.98835C9.15683 6.76961 9.18841 6.52357 9.14329 6.28571C9.10502 6.0899 9.01642 5.90743 8.88622 5.75625C8.75602 5.60507 8.5887 5.4904 8.40073 5.42351C8.21276 5.35663 8.01061 5.33983 7.81418 5.37479C7.61774 5.40974 7.4338 5.49523 7.28044 5.62286C7.15271 5.73106 7.05021 5.86591 6.98012 6.01793C6.91004 6.16995 6.87406 6.33546 6.87472 6.50286C6.87472 6.65441 6.81452 6.79975 6.70735 6.90692C6.60019 7.01408 6.45484 7.07429 6.30329 7.07429C6.15174 7.07429 6.0064 7.01408 5.89923 6.90692C5.79207 6.79975 5.73186 6.65441 5.73186 6.50286C5.73142 6.16759 5.80473 5.83633 5.94661 5.53255C6.08849 5.22878 6.29545 4.95994 6.55284 4.74509C6.81022 4.53025 7.11171 4.37465 7.43595 4.28933C7.76018 4.20402 8.09921 4.19108 8.42901 4.25143C8.89333 4.3361 9.32006 4.56244 9.65059 4.89937C9.98112 5.23629 10.1992 5.66728 10.275 6.13314C10.3508 6.59901 10.2805 7.0769 10.0737 7.5012C9.86701 7.92551 9.534 8.27541 9.12044 8.50286Z" fill="white"/>
</svg>